<?xml version="1.0" encoding="UTF-8"?>
<svg width="297px" height="136px" viewBox="0 0 297 136" version="1.1" xmlns="http://www.w3.org/2000/svg" xmlns:xlink="http://www.w3.org/1999/xlink">
    <!-- Generator: Sketch 52.3 (67297) - http://www.bohemiancoding.com/sketch -->
    <title>Group</title>
    <desc>Created with Sketch.</desc>
    <defs>
        <polygon id="path-1" points="47.7488985 56.7181672 47.7488985 0.0857584102 0.00252046462 0.0857584102 0.00252046462 56.7181672"></polygon>
        <polygon id="path-3" points="26.4145702 0.241948928 0.80382433 0.241948928 0.80382433 63.9810263 26.4145702 63.9810263 26.4145702 0.241948928"></polygon>
    </defs>
    <g id="Page-1" stroke="none" stroke-width="1" fill="none" fill-rule="evenodd">
        <g id="Artboard" transform="translate(-248.000000, -631.000000)">
            <g id="Group" transform="translate(247.000000, 630.000000)">
                <g id="logo-torch" transform="translate(1.000000, 0.000000)">
                    <polygon id="Fill-1" fill="#FFFFFF" points="0 8.45417773 0 17.677512 18.2759759 17.677512 18.2759759 65.0874475 28.4838576 65.0874475 28.4838576 17.677512 46.7589643 17.677512 46.7589643 8.45417773"></polygon>
                    <g id="Group-18" transform="translate(49.540167, 0.619338)">
                        <path d="M101.062201,35.9092678 C104.695146,35.9092678 107.58412,35.0568499 109.73173,33.3494309 C111.87847,31.643734 112.951841,29.3275681 112.951841,26.4026553 L112.951841,26.240782 C112.951841,23.1539958 111.906282,20.810277 109.812559,19.2122087 C107.721442,17.6141403 104.775975,16.8151061 100.978765,16.8151061 L86.1966742,16.8151061 L86.1966742,35.9092678 L101.062201,35.9092678 Z M76.1547955,7.83544286 L101.83833,7.83544286 C105.460846,7.83544286 108.672266,8.33483922 111.469981,9.33190989 C114.268566,10.3307026 116.6013,11.7186801 118.468182,13.4992865 C120.003058,15.0637747 121.1842,16.8702119 122.008131,18.9194591 C122.831193,20.9687062 123.242289,23.2340714 123.242289,25.7146937 L123.242289,25.876567 C123.242289,28.1970381 122.898985,30.2858925 122.213245,32.1474355 C121.525766,34.0072565 120.580157,35.6535424 119.372942,37.0811272 C118.164857,38.5112951 116.724716,39.7253448 115.051649,40.7224155 C113.375974,41.7212082 111.523867,42.4901064 109.495328,43.0282491 L125.053547,64.4678516 L113.116105,64.4678516 L98.9128528,44.7270577 L98.748588,44.7270577 L86.1966742,44.7270577 L86.1966742,64.4678516 L76.1547955,64.4678516 L76.1547955,7.83544286 Z" id="Fill-4" fill="#FFFFFF"></path>
                        <path d="M162.508695,65.4381443 C158.282136,65.4381443 154.385846,64.6830226 150.819823,63.1727791 C147.251192,61.6642577 144.156236,59.601234 141.533214,56.9845693 C138.911062,54.3696266 136.852103,51.2802574 135.359814,47.7207667 C133.865787,44.1612761 133.120077,40.3589755 133.120077,36.3130039 L133.120077,36.1511306 C133.120077,32.1068811 133.851881,28.318357 135.318096,24.7846972 C136.783442,21.2536205 138.841532,18.1504748 141.492365,15.4804263 C144.14233,12.8112388 147.279874,10.7077469 150.90239,9.16995049 C154.523167,7.63301512 158.528968,6.86497796 162.92066,6.86497796 C165.55498,6.86497796 167.955506,7.08109604 170.123974,7.51247117 C172.291574,7.94470734 174.281003,8.55173223 176.092261,9.33182379 C177.903519,10.1144984 179.576586,11.0452699 181.1132,12.1232773 C182.649814,13.2030066 184.104731,14.3886425 185.47708,15.6836289 L178.972543,23.0454202 C176.668491,20.9419282 174.225379,19.2431196 171.646683,17.9489942 C169.066248,16.6540077 166.131211,16.0065145 162.838093,16.0065145 C160.093394,16.0065145 157.555547,16.5326028 155.223683,17.5839182 C152.89008,18.6369557 150.872839,20.0662625 149.172829,21.8718387 C147.471081,23.679998 146.154356,25.7955443 145.220915,28.2227828 C144.287474,30.6508824 143.821622,33.2391332 143.821622,35.9901183 L143.821622,36.1511306 C143.821622,38.9029768 144.287474,41.5050041 145.220915,43.9589345 C146.154356,46.4128649 147.471081,48.5576862 149.172829,50.3899542 C150.872839,52.2248053 152.89008,53.6670276 155.223683,54.7192041 C157.555547,55.7696585 160.093394,56.2966078 162.838093,56.2966078 C166.35023,56.2966078 169.368704,55.6370601 171.893514,54.3145208 C174.417455,52.9937035 176.915323,51.1993207 179.384509,48.9339555 L185.888177,55.4071656 C184.406317,56.9716539 182.854928,58.3596314 181.237485,59.5728201 C179.618304,60.7868699 177.874838,61.8381854 176.009694,62.7293496 C174.143681,63.6187917 172.099497,64.2929768 169.877143,64.7510438 C167.653919,65.2082498 165.19777,65.4381443 162.508695,65.4381443" id="Fill-6" fill="#FFFFFF"></path>
                        <g id="Group-10" transform="translate(196.422415, 7.749254)">
                            <mask id="mask-2" fill="white">
                                <use xlink:href="#path-1"></use>
                            </mask>
                            <g id="Clip-9"></g>
                            <polygon id="Fill-8" fill="#FFFFFF" mask="url(#mask-2)" points="0.00252046462 0.0857584102 10.0461374 0.0857584102 10.0461374 23.6297139 37.7060638 23.6297139 37.7060638 0.0857584102 47.7496807 0.0857584102 47.7496807 56.7181672 37.7060638 56.7181672 37.7060638 32.8521871 10.0461374 32.8521871 10.0461374 56.7181672 0.00252046462 56.7181672"></polygon>
                        </g>
                        <path d="M39.7384274,64.4495117 C39.8548903,63.9199794 39.8305547,63.7210818 39.9218129,63.6608099 C51.7732114,55.7806797 50.83021,46.3713633 45.1278761,35.7126951 C42.1858855,30.2133078 39.4194583,24.6502046 38.0810046,18.6307563 C36.6399942,12.1472138 39.0483416,5.35800637 44.850625,0.710176071 C44.9566583,8.85636401 49.025905,15.2925499 53.1603361,21.6839624 C55.938931,25.9813542 58.3264194,30.430287 60.5722403,34.9670446 C68.0727954,50.1211412 59.6570509,60.7427853 39.7384274,64.4495117" id="Fill-11" fill="#F17622"></path>
                        <g id="Group-15" transform="translate(0.000000, 0.000000)">
                            <mask id="mask-4" fill="white">
                                <use xlink:href="#path-3"></use>
                            </mask>
                            <g id="Clip-14"></g>
                            <path d="M18.9212148,0.24169062 C26.8007087,7.32536974 27.618556,14.7904844 25.2371515,22.7549953 C23.5771214,28.3060442 20.1927458,33.2991469 17.7200831,38.5918873 C12.3054297,50.178744 13.3935752,54.3736734 24.0534023,62.9107682 C24.3793244,63.1716597 24.5401127,63.5832312 24.8164946,63.9810263 C6.99854804,63.4971284 -3.29972275,51.0897118 2.36002401,37.1005864 C5.25160532,29.9540523 9.87361595,23.5411141 13.9967484,16.9223902 C17.0812756,11.971478 19.7347165,6.97148715 18.9212148,0.24169062" id="Fill-13" fill="#F17622" mask="url(#mask-4)"></path>
                        </g>
                        <path d="M42.561087,46.8043744 C42.6001977,54.0042923 38.0616231,57.4165472 31.2433318,57.0488881 C24.837006,56.7036158 21.5560564,53.3688535 21.5265061,47.6068527 C21.4969558,41.8457129 26.6882438,35.9468086 30.8417957,30.6161829 C31.6535591,29.5743388 32.6660906,29.4615441 33.4630789,30.5214698 C37.707889,36.1655098 42.1864939,41.7509998 42.561087,46.8043744" id="Fill-16" fill="#F17622"></path>
                    </g>
                </g>
                <text id="What’s-your-mission?" font-family="SourceSansPro-Regular, Source Sans Pro" font-size="27.4909091" font-weight="normal" line-spacing="27.4909091" letter-spacing="0.687272739" fill="#FFFFFF">
                    <tspan x="0.526763521" y="96.3195636">WHAT’S YOUR MISSION</tspan>
                    <tspan x="276.233091" y="96.3195636">?</tspan>
                </text>
                <path d="M2,109.5 L297,109.5" id="Line" stroke="#979797" stroke-linecap="square" fill-rule="nonzero"></path>
                <text id="www.torch1.com" font-family="SourceSansPro-Regular, Source Sans Pro" font-size="21.9927273" font-weight="normal" line-spacing="21.9927273" letter-spacing="0.549818182" fill="#FFFFFF">
                    <tspan x="61.2541818" y="137.055651">www.</tspan>
                    <tspan x="114.54256" y="136.571811" font-family="SourceSansPro-Bold, Source Sans Pro" font-weight="bold">torch1</tspan>
                    <tspan x="182.082225" y="137.055651">.com</tspan>
                </text>
            </g>
        </g>
    </g>
</svg>