<?xml version="1.0" encoding="UTF-8"?>
<svg width="307.26" height="51.063" version="1.1" xmlns="http://www.w3.org/2000/svg" xmlns:xlink="http://www.w3.org/1999/xlink">
 <defs>
  <path id="b" d="m7.913 0.073h-7.673v19.228h7.672v-19.228z"/>
  <mask id="c" fill="#fff">
   <use width="100%" height="100%" xlink:href="#b"/>
  </mask>
 </defs>
 <g transform="matrix(.25109 0 0 .25109 79.243 -.00015347)" fill-rule="evenodd">
  <path d="m36.869 130.48h20.593v-96.313h36.867v-18.737h-94.329v18.737h36.869zm266.95-58.017c7.329 0 13.157-1.732 17.49-5.2 4.33-3.466 6.495-8.17 6.495-14.113v-0.329c0-6.27-2.109-11.032-6.333-14.278-4.218-3.247-10.16-4.87-17.82-4.87h-29.821v38.79zm-50.247-57.032h51.812c7.308 0 13.787 1.014 19.43 3.04 5.647 2.029 10.352 4.849 14.119 8.466a33.338 33.338 0 0 1 7.14 11.011c1.661 4.163 2.49 8.765 2.49 13.805v0.328c0 4.714-0.692 8.958-2.075 12.74-1.387 3.778-3.295 7.122-5.73 10.023-2.437 2.905-5.343 5.371-8.718 7.397-3.38 2.029-7.116 3.591-11.209 4.684l31.387 43.555h-24.082l-28.654-40.104h-25.652v40.104h-20.258v-115.05zm174.2 117.02c-8.526 0-16.386-1.534-23.58-4.602-7.2-3.065-13.443-7.256-18.734-12.571-5.29-5.313-9.444-11.589-12.454-18.82-3.014-7.231-4.519-14.955-4.519-23.175v-0.329c0-8.216 1.477-15.912 4.435-23.09 2.956-7.174 7.108-13.478 12.455-18.902 5.346-5.423 11.676-9.696 18.984-12.82 7.304-3.122 15.385-4.683 24.245-4.683 5.314 0 10.157 0.44 14.531 1.316 4.373 0.878 8.386 2.11 12.04 3.696 3.654 1.59 7.03 3.48 10.13 5.67a79.03 79.03 0 0 1 8.803 7.233l-13.122 14.956c-4.648-4.273-9.577-7.724-14.78-10.353-5.205-2.631-11.126-3.947-17.77-3.947-5.536 0-10.656 1.07-15.36 3.205-4.708 2.14-8.777 5.043-12.207 8.71-3.433 3.674-6.089 7.972-7.972 12.903-1.883 4.932-2.823 10.19-2.823 15.78v0.326c0 5.59 0.94 10.877 2.823 15.862s4.54 9.342 7.972 13.065c3.43 3.727 7.5 6.657 12.207 8.794 4.704 2.134 9.824 3.205 15.36 3.205 7.086 0 13.175-1.34 18.269-4.027 5.091-2.683 10.13-6.328 15.112-10.93l13.12 13.15c-2.99 3.178-6.12 5.998-9.382 8.463a62.212 62.212 0 0 1-10.546 6.412c-3.765 1.807-7.889 3.177-12.372 4.107-4.485 0.929-9.44 1.396-14.865 1.396m68.419-117.02v115.05h20.27v-48.482h55.794v48.482h20.256v-115.05h-20.256v47.825h-55.795v-47.825z" fill="#fff"/>
  <g fill="#f17622">
   <path d="m180.11 130.44c0.235-1.076 0.185-1.48 0.37-1.603 23.908-16.008 22.006-35.123 10.502-56.776-5.935-11.172-11.516-22.474-14.216-34.702-2.907-13.172 1.952-26.964 13.657-36.406 0.214 16.549 8.423 29.624 16.763 42.608 5.606 8.73 10.422 17.768 14.953 26.985 15.13 30.785-1.847 52.363-42.03 59.894"/>
   <path transform="matrix(6.7344 0 0 6.7344 99.94 -.491)" d="m5.668 0.073c2.36 2.137 2.605 4.389 1.892 6.791-0.497 1.675-1.511 3.181-2.252 4.778-1.622 3.495-1.296 4.76 1.897 7.336 0.098 0.079 0.146 0.203 0.229 0.323-5.338-0.146-8.422-3.89-6.727-8.11 0.866-2.155 2.25-4.09 3.486-6.086 0.924-1.495 1.719-3.002 1.475-5.032" mask="url(#c)"/>
   <path d="m185.8 94.592c0.079 14.627-9.077 21.56-22.832 20.812-12.924-0.701-19.542-7.476-19.602-19.181-0.06-11.704 10.413-23.688 18.792-34.517 1.638-2.117 3.68-2.346 5.288-0.192 8.563 11.466 17.598 22.812 18.354 33.078"/>
   <path d="m148.15 130.44c-0.235-1.076-0.186-1.48-0.37-1.603-23.909-16.008-22.006-35.123-10.503-56.776 5.935-11.172 11.516-22.474 14.216-34.702 2.907-13.172-1.951-26.964-13.656-36.406-0.214 16.549-8.423 29.624-16.764 42.608-5.605 8.73-10.422 17.768-14.952 26.985-15.132 30.785 1.846 52.363 42.029 59.894"/>
  </g>
 </g>
 <g transform="matrix(.36354 0 0 .36354 -25.849 -15.682)" fill="#fff" font-size="42.599" font-weight="600" letter-spacing="0" stroke-width=".866" word-spacing="0" aria-label="WHAT'S YOUR MISSION?">
  <g transform="matrix(1.0304,0,0,1.0304,-2.1582,-4.5193)" fill="#fff" stroke-width="3.449" aria-label="Powered by Torch: social intelligence for social good">
   <path d="m75.925 162.87h1.5869q2.2247 0 3.3293-0.87122 1.1046-0.88677 1.1046-2.567 0-1.6958-0.93345-2.5047-0.91789-0.80899-2.8937-0.80899h-2.1936zm10.89-3.6093q0 3.6716-2.3025 5.6162-2.2869 1.9447-6.5186 1.9447h-2.0691v8.0898h-4.8228v-22.745h7.2653q4.1383 0 6.2852 1.7891 2.1625 1.7735 2.1625 5.3051z"/>
   <path d="m94.547 166.18q0 2.5825 0.8401 3.9049 0.85566 1.3224 2.7692 1.3224 1.898 0 2.7226-1.3068 0.8401-1.3224 0.8401-3.9205 0-2.5825-0.8401-3.8738t-2.7537-1.2913q-1.898 0-2.7381 1.2913-0.8401 1.2757-0.8401 3.8738zm12.026 0q0 4.2472-2.2403 6.643t-6.2385 2.3958q-2.5047 0-4.4183-1.089-1.9136-1.1046-2.9404-3.1582t-1.0268-4.7917q0-4.2627 2.2247-6.6275 2.2247-2.3647 6.2541-2.3647 2.5047 0 4.4183 1.089t2.9404 3.127 1.0268 4.7761z"/>
   <path d="m124.79 174.91-1.3379-6.083-1.8047-7.6854h-0.1089l-3.1737 13.768h-5.1028l-4.9473-17.393h4.7294l2.0069 7.7009q0.48228 2.0691 0.98012 5.7096h0.0933q0.0622-1.1824 0.54451-3.7493l0.24892-1.3224 2.1469-8.3388h5.2273l2.038 8.3388q0.0622 0.34226 0.18669 1.0112 0.14002 0.66897 0.26448 1.4313 0.12446 0.74676 0.2178 1.478 0.1089 0.71564 0.12446 1.1512h0.0933q0.14002-1.1201 0.49784-3.0648 0.35782-1.9602 0.5134-2.6448l2.0847-7.7009h4.6517l-5.0095 17.393z"/>
   <path d="m144.95 160.56q-1.5091 0-2.3647 0.96456-0.85565 0.94901-0.98011 2.707h6.6586q-0.0311-1.758-0.91789-2.707-0.88677-0.96456-2.3958-0.96456zm0.66897 14.655q-4.2005 0-6.5652-2.318-2.3647-2.3181-2.3647-6.5652 0-4.3716 2.178-6.7519 2.1936-2.3958 6.0518-2.3958 3.6871 0 5.7407 2.1002 2.0536 2.1003 2.0536 5.8029v2.3025h-11.217q0.0778 2.0225 1.1979 3.1582t3.1426 1.1357q1.5713 0 2.9715-0.32671 1.4002-0.3267 2.9248-1.0423v3.6716q-1.2446 0.62229-2.6603 0.91788-1.4157 0.31115-3.4538 0.31115z"/>
   <path d="m166.31 157.19q0.96456 0 1.6024 0.14002l-0.35782 4.4494q-0.57563-0.15557-1.4002-0.15557-2.2714 0-3.5471 1.1668-1.2602 1.1668-1.2602 3.2671v8.8522h-4.745v-17.393h3.5938l0.70008 2.9248h0.23336q0.80899-1.4624 2.178-2.3492 1.3846-0.90233 3.0026-0.90233z"/>
   <path d="m178.31 160.56q-1.5091 0-2.3647 0.96456-0.85565 0.94901-0.98011 2.707h6.6586q-0.0311-1.758-0.91789-2.707-0.88677-0.96456-2.3958-0.96456zm0.66897 14.655q-4.2005 0-6.5652-2.318-2.3647-2.3181-2.3647-6.5652 0-4.3716 2.178-6.7519 2.1936-2.3958 6.0518-2.3958 3.6871 0 5.7407 2.1002 2.0536 2.1003 2.0536 5.8029v2.3025h-11.217q0.0778 2.0225 1.1979 3.1582t3.1426 1.1357q1.5713 0 2.9715-0.32671 1.4002-0.3267 2.9248-1.0423v3.6716q-1.2446 0.62229-2.6603 0.91788-1.4157 0.31115-3.4538 0.31115z"/>
   <path d="m195.47 175.22q-3.0648 0-4.8228-2.3803-1.7424-2.3803-1.7424-6.5964 0-4.2783 1.7736-6.6586 1.7891-2.3958 4.9161-2.3958 3.2826 0 5.0095 2.5514h0.15557q-0.35782-1.9447-0.35782-3.4693v-5.5696h4.7606v24.207h-3.6404l-0.91789-2.2558h-0.20225q-1.618 2.567-4.9317 2.567zm1.6646-3.7804q1.8202 0 2.6603-1.0579 0.85566-1.0579 0.93345-3.5938v-0.51339q0-2.8003-0.87122-4.0138-0.85565-1.2135-2.8003-1.2135-1.5869 0-2.4736 1.3535-0.87122 1.3379-0.87122 3.9049t0.88678 3.8582q0.88677 1.2757 2.5359 1.2757z"/>
   <path d="m228.08 157.19q3.0804 0 4.8228 2.4114 1.7424 2.3958 1.7424 6.5808 0 4.3094-1.8047 6.6741-1.7891 2.3647-4.885 2.3647-3.0648 0-4.8072-2.2247h-0.32671l-0.79343 1.9136h-3.6249v-24.207h4.745v5.6318q0 1.0735-0.18669 3.4382h0.18669q1.6646-2.5825 4.9317-2.5825zm-1.5246 3.796q-1.758 0-2.567 1.089-0.80899 1.0735-0.8401 3.5626v0.5134q0 2.8003 0.82454 4.0138 0.8401 1.2135 2.6448 1.2135 1.4624 0 2.3181-1.3379 0.87121-1.3535 0.87121-3.9205t-0.87121-3.8427q-0.87122-1.2913-2.3803-1.2913z"/>
   <path d="m236.07 157.52h5.1962l3.2826 9.7856q0.42005 1.2757 0.57562 3.0181h0.0933q0.17113-1.6024 0.66897-3.0181l3.2204-9.7856h5.0873l-7.3587 19.618q-1.0112 2.7225-2.8937 4.076-1.8669 1.3535-4.3716 1.3535-1.229 0-2.4114-0.26448v-3.7649q0.85566 0.20225 1.8669 0.20225 1.2602 0 2.1936-0.77787 0.949-0.76231 1.478-2.3181l0.28003-0.85565z"/>
   <path d="m274.1 174.91h-4.8228v-18.731h-6.1763v-4.0138h17.175v4.0138h-6.1763z"/>
   <path d="m287.21 166.18q0 2.5825 0.8401 3.9049 0.85566 1.3224 2.7692 1.3224 1.898 0 2.7225-1.3068 0.84011-1.3224 0.84011-3.9205 0-2.5825-0.84011-3.8738-0.8401-1.2913-2.7537-1.2913-1.898 0-2.7381 1.2913-0.8401 1.2757-0.8401 3.8738zm12.026 0q0 4.2472-2.2403 6.643t-6.2385 2.3958q-2.5048 0-4.4183-1.089-1.9136-1.1046-2.9404-3.1582t-1.0268-4.7917q0-4.2627 2.2247-6.6275t6.2541-2.3647q2.5048 0 4.4183 1.089t2.9404 3.127q1.0268 2.038 1.0268 4.7761z"/>
   <path d="m312.86 157.19q0.96456 0 1.6024 0.14002l-0.35782 4.4494q-0.57562-0.15557-1.4002-0.15557-2.2714 0-3.5471 1.1668-1.2602 1.1668-1.2602 3.2671v8.8522h-4.745v-17.393h3.5938l0.70009 2.9248h0.23336q0.80898-1.4624 2.178-2.3492 1.3846-0.90233 3.0026-0.90233z"/>
   <path d="m324.72 175.22q-8.121 0-8.121-8.9144 0-4.4339 2.2092-6.7675 2.2092-2.3492 6.3319-2.3492 3.0181 0 5.414 1.1824l-1.4002 3.6716q-1.1201-0.45117-2.0847-0.7312-0.96456-0.29559-1.9291-0.29559-3.7027 0-3.7027 5.2584 0 5.1028 3.7027 5.1028 1.3691 0 2.5359-0.35782 1.1668-0.37338 2.3336-1.1512v4.0605q-1.1512 0.7312-2.3336 1.0112-1.1668 0.28003-2.9559 0.28003z"/>
   <path d="m350.08 174.91h-4.745v-10.159q0-3.7649-2.8003-3.7649-1.9914 0-2.8781 1.3535-0.88678 1.3535-0.88678 4.3872v8.1832h-4.745v-24.207h4.745v4.9317q0 0.57562-0.1089 2.707l-0.1089 1.4002h0.24892q1.5868-2.5514 5.0406-2.5514 3.0648 0 4.6517 1.6491t1.5869 4.7294z"/>
   <path d="m354.32 172.68q0-1.3068 0.70009-1.9758 0.70008-0.66897 2.038-0.66897 1.2913 0 1.9914 0.68453 0.71564 0.68452 0.71564 1.9602 0 1.229-0.71564 1.9447-0.71564 0.70009-1.9914 0.70009-1.3068 0-2.0225-0.68453-0.71565-0.70009-0.71565-1.9602zm0-12.85q0-1.3068 0.70009-1.9758 0.70008-0.66897 2.038-0.66897 1.2913 0 1.9914 0.68453 0.71564 0.68452 0.71564 1.9602 0 1.2602-0.7312 1.9602-0.71564 0.68453-1.9758 0.68453-1.3068 0-2.0225-0.68453-0.71565-0.68453-0.71565-1.9602z"/>
   <path d="m384.49 169.74q0 2.6759-1.8669 4.076-1.8513 1.4002-5.554 1.4002-1.898 0-3.2359-0.26447-1.3379-0.24892-2.5048-0.74676v-3.9205q1.3224 0.6223 2.9715 1.0424 1.6646 0.42005 2.9248 0.42005 2.5825 0 2.5825-1.4935 0-0.56007-0.34226-0.90233-0.34227-0.35783-1.1824-0.79343-0.8401-0.45117-2.2403-1.0424-2.0069-0.8401-2.9559-1.5557-0.93344-0.71564-1.369-1.6335-0.42005-0.93345-0.42005-2.2869 0-2.3181 1.7891-3.5782 1.8047-1.2757 5.1028-1.2757 3.1426 0 6.1141 1.369l-1.4313 3.4226q-1.3068-0.56007-2.4425-0.91789t-2.3181-0.35782q-2.1002 0-2.1002 1.1357 0 0.63786 0.66897 1.1046 0.68452 0.46672 2.9715 1.3846 2.038 0.82454 2.987 1.5402t1.4002 1.6491q0.45116 0.93344 0.45116 2.2247z"/>
   <path d="m392 166.18q0 2.5825 0.8401 3.9049 0.85566 1.3224 2.7692 1.3224 1.898 0 2.7226-1.3068 0.8401-1.3224 0.8401-3.9205 0-2.5825-0.8401-3.8738t-2.7537-1.2913q-1.898 0-2.7381 1.2913-0.8401 1.2757-0.8401 3.8738zm12.026 0q0 4.2472-2.2403 6.643t-6.2385 2.3958q-2.5047 0-4.4183-1.089-1.9136-1.1046-2.9404-3.1582t-1.0268-4.7917q0-4.2627 2.2247-6.6275t6.2541-2.3647q2.5047 0 4.4183 1.089t2.9404 3.127 1.0268 4.7761z"/>
   <path d="m415.01 175.22q-8.121 0-8.121-8.9144 0-4.4339 2.2092-6.7675 2.2092-2.3492 6.3319-2.3492 3.0181 0 5.414 1.1824l-1.4002 3.6716q-1.1201-0.45117-2.0847-0.7312-0.96456-0.29559-1.9291-0.29559-3.7027 0-3.7027 5.2584 0 5.1028 3.7027 5.1028 1.369 0 2.5359-0.35782 1.1668-0.37338 2.3336-1.1512v4.0605q-1.1512 0.7312-2.3336 1.0112-1.1668 0.28003-2.9559 0.28003z"/>
   <path d="m424.12 153.02q0-2.318 2.5825-2.318t2.5825 2.318q0 1.1046-0.65341 1.7269-0.63785 0.60674-1.9291 0.60674-2.5825 0-2.5825-2.3336zm4.9473 21.889h-4.745v-17.393h4.745z"/>
   <path d="m445.07 174.91-0.91789-2.3647h-0.12446q-1.1979 1.5091-2.4736 2.1002-1.2602 0.57562-3.2982 0.57562-2.5047 0-3.9516-1.4313-1.4313-1.4313-1.4313-4.076 0-2.7692 1.9291-4.076 1.9447-1.3224 5.8496-1.4624l3.0181-0.0933v-0.76231q0-2.6448-2.707-2.6448-2.0847 0-4.9006 1.2602l-1.5713-3.2048q3.0026-1.5713 6.6586-1.5713 3.5004 0 5.3673 1.5246t1.8669 4.6361v11.59zm-1.4002-8.0587-1.8358 0.0622q-2.0691 0.0622-3.0804 0.74676-1.0112 0.68452-1.0112 2.0847 0 2.0069 2.3025 2.0069 1.6491 0 2.6292-0.949 0.99567-0.94901 0.99567-2.5203z"/>
   <path d="m458 174.91h-4.745v-24.207h4.745z"/>
   <path d="m471.04 153.02q0-2.318 2.5825-2.318t2.5825 2.318q0 1.1046-0.65341 1.7269-0.63786 0.60674-1.9291 0.60674-2.5825 0-2.5825-2.3336zm4.9473 21.889h-4.745v-17.393h4.745z"/>
   <path d="m497 174.91h-4.745v-10.159q0-1.8824-0.66897-2.8159-0.66897-0.94901-2.1314-0.94901-1.9914 0-2.8781 1.3379-0.88677 1.3224-0.88677 4.4028v8.1832h-4.745v-17.393h3.6249l0.63786 2.2247h0.26447q0.79343-1.2602 2.178-1.898 1.4002-0.65341 3.1737-0.65341 3.0337 0 4.605 1.6491 1.5713 1.6335 1.5713 4.7294z"/>
   <path d="m509.25 171.44q1.2446 0 2.987-0.54451v3.5315q-1.7736 0.79343-4.3561 0.79343-2.847 0-4.1538-1.4313-1.2913-1.4468-1.2913-4.325v-8.3854h-2.2714v-2.0069l2.6136-1.5869 1.369-3.6716h3.0337v3.7027h4.8695v3.5626h-4.8695v8.3854q0 1.0112 0.56006 1.4935 0.57563 0.48228 1.5091 0.48228z"/>
   <path d="m522.94 160.56q-1.5091 0-2.3647 0.96456-0.85566 0.94901-0.98012 2.707h6.6586q-0.0311-1.758-0.91789-2.707-0.88677-0.96456-2.3958-0.96456zm0.66897 14.655q-4.2005 0-6.5652-2.318-2.3647-2.3181-2.3647-6.5652 0-4.3716 2.178-6.7519 2.1936-2.3958 6.0518-2.3958 3.6871 0 5.7407 2.1002 2.0536 2.1003 2.0536 5.8029v2.3025h-11.217q0.0778 2.0225 1.1979 3.1582t3.1426 1.1357q1.5713 0 2.9715-0.32671 1.4002-0.3267 2.9248-1.0423v3.6716q-1.2446 0.62229-2.6603 0.91788-1.4157 0.31115-3.4537 0.31115z"/>
   <path d="m539.33 174.91h-4.745v-24.207h4.745z"/>
   <path d="m549.04 174.91h-4.745v-24.207h4.745z"/>
   <path d="m553.8 153.02q0-2.318 2.5825-2.318t2.5825 2.318q0 1.1046-0.65341 1.7269-0.63786 0.60674-1.9291 0.60674-2.5825 0-2.5825-2.3336zm4.9473 21.889h-4.745v-17.393h4.745z"/>
   <path d="m578.85 157.52v2.4114l-2.7226 0.70008q0.74676 1.1668 0.74676 2.6136 0 2.8003-1.9602 4.3716-1.9447 1.5558-5.414 1.5558l-0.85566-0.0467-0.70008-0.0778q-0.7312 0.56006-0.7312 1.2446 0 1.0268 2.6136 1.0268h2.9559q2.8626 0 4.3561 1.229 1.5091 1.229 1.5091 3.6093 0 3.0492-2.5514 4.7294-2.5358 1.6802-7.2964 1.6802-3.6404 0-5.5696-1.2757-1.9136-1.2602-1.9136-3.5471 0-1.5713 0.98012-2.6292t2.8781-1.5091q-0.73119-0.31115-1.2757-1.0112-0.54451-0.71564-0.54451-1.5091 0-0.99568 0.57562-1.6491 0.57563-0.66897 1.6646-1.3068-1.3691-0.59118-2.178-1.898-0.79343-1.3068-0.79343-3.0804 0-2.847 1.8513-4.4028 1.8513-1.5557 5.2895-1.5557 0.7312 0 1.7269 0.14002 1.0112 0.12446 1.2913 0.18669zm-13.426 19.851q0 0.98011 0.93345 1.5402 0.949 0.56007 2.6448 0.56007 2.5514 0 3.9983-0.70008 1.4468-0.70009 1.4468-1.9136 0-0.98012-0.85566-1.3535t-2.6448-0.37338h-2.4581q-1.3068 0-2.1936 0.60674-0.87122 0.62229-0.87122 1.6335zm1.7269-14.157q0 1.4157 0.63785 2.2403 0.65341 0.82455 1.9758 0.82455 1.3379 0 1.9602-0.82455 0.6223-0.82454 0.6223-2.2403 0-3.1426-2.5825-3.1426-2.6136 0-2.6136 3.1426z"/>
   <path d="m588.9 160.56q-1.5091 0-2.3647 0.96456-0.85566 0.94901-0.98012 2.707h6.6586q-0.0311-1.758-0.91789-2.707-0.88677-0.96456-2.3958-0.96456zm0.66897 14.655q-4.2005 0-6.5652-2.318-2.3647-2.3181-2.3647-6.5652 0-4.3716 2.178-6.7519 2.1936-2.3958 6.0518-2.3958 3.6871 0 5.7407 2.1002 2.0536 2.1003 2.0536 5.8029v2.3025h-11.217q0.0778 2.0225 1.1979 3.1582t3.1426 1.1357q1.5713 0 2.9715-0.32671 1.4002-0.3267 2.9248-1.0423v3.6716q-1.2446 0.62229-2.6603 0.91788-1.4157 0.31115-3.4538 0.31115z"/>
   <path d="m616.61 174.91h-4.745v-10.159q0-1.8824-0.66897-2.8159-0.66897-0.94901-2.1314-0.94901-1.9914 0-2.8781 1.3379-0.88677 1.3224-0.88677 4.4028v8.1832h-4.745v-17.393h3.6249l0.63786 2.2247h0.26447q0.79343-1.2602 2.178-1.898 1.4002-0.65341 3.1737-0.65341 3.0337 0 4.605 1.6491 1.5713 1.6335 1.5713 4.7294z"/>
   <path d="m628.59 175.22q-8.121 0-8.121-8.9144 0-4.4339 2.2092-6.7675 2.2092-2.3492 6.3319-2.3492 3.0181 0 5.414 1.1824l-1.4002 3.6716q-1.1201-0.45117-2.0847-0.7312-0.96456-0.29559-1.9291-0.29559-3.7027 0-3.7027 5.2584 0 5.1028 3.7027 5.1028 1.369 0 2.5359-0.35782 1.1668-0.37338 2.3336-1.1512v4.0605q-1.1512 0.7312-2.3336 1.0112-1.1668 0.28003-2.9559 0.28003z"/>
   <path d="m645.09 160.56q-1.5091 0-2.3647 0.96456-0.85566 0.94901-0.98012 2.707h6.6586q-0.0311-1.758-0.91789-2.707-0.88677-0.96456-2.3958-0.96456zm0.66897 14.655q-4.2005 0-6.5652-2.318-2.3647-2.3181-2.3647-6.5652 0-4.3716 2.178-6.7519 2.1936-2.3958 6.0518-2.3958 3.6871 0 5.7407 2.1002 2.0536 2.1003 2.0536 5.8029v2.3025h-11.217q0.0778 2.0225 1.1979 3.1582t3.1426 1.1357q1.5713 0 2.9715-0.32671 1.4002-0.3267 2.9248-1.0423v3.6716q-1.2446 0.62229-2.6603 0.91788-1.4157 0.31115-3.4538 0.31115z"/>
   <path d="m674.64 161.08h-4.1072v13.831h-4.745v-13.831h-2.6136v-2.2869l2.6136-1.2757v-1.2757q0-2.9715 1.4624-4.3405t4.6828-1.369q2.4581 0 4.3716 0.73119l-1.2135 3.4849q-1.4313-0.45117-2.6448-0.45117-1.0112 0-1.4624 0.60674-0.45117 0.59118-0.45117 1.5246v1.089h4.1072z"/>
   <path d="m681.12 166.18q0 2.5825 0.8401 3.9049 0.85566 1.3224 2.7692 1.3224 1.898 0 2.7226-1.3068 0.8401-1.3224 0.8401-3.9205 0-2.5825-0.8401-3.8738t-2.7537-1.2913q-1.898 0-2.7381 1.2913-0.8401 1.2757-0.8401 3.8738zm12.026 0q0 4.2472-2.2403 6.643t-6.2385 2.3958q-2.5047 0-4.4183-1.089-1.9136-1.1046-2.9404-3.1582t-1.0268-4.7917q0-4.2627 2.2247-6.6275t6.2541-2.3647q2.5047 0 4.4183 1.089t2.9404 3.127 1.0268 4.7761z"/>
   <path d="m706.78 157.19q0.96456 0 1.6024 0.14002l-0.35782 4.4494q-0.57563-0.15557-1.4002-0.15557-2.2714 0-3.5471 1.1668-1.2602 1.1668-1.2602 3.2671v8.8522h-4.745v-17.393h3.5938l0.70008 2.9248h0.23336q0.80899-1.4624 2.178-2.3492 1.3846-0.90233 3.0026-0.90233z"/>
   <path d="m731.98 169.74q0 2.6759-1.8669 4.076-1.8513 1.4002-5.554 1.4002-1.898 0-3.2359-0.26447-1.3379-0.24892-2.5048-0.74676v-3.9205q1.3224 0.6223 2.9715 1.0424 1.6646 0.42005 2.9248 0.42005 2.5825 0 2.5825-1.4935 0-0.56007-0.34226-0.90233-0.34227-0.35783-1.1824-0.79343-0.8401-0.45117-2.2403-1.0424-2.0069-0.8401-2.9559-1.5557-0.93344-0.71564-1.369-1.6335-0.42005-0.93345-0.42005-2.2869 0-2.3181 1.7891-3.5782 1.8047-1.2757 5.1028-1.2757 3.1426 0 6.1141 1.369l-1.4313 3.4226q-1.3068-0.56007-2.4425-0.91789t-2.3181-0.35782q-2.1002 0-2.1002 1.1357 0 0.63786 0.66897 1.1046 0.68452 0.46672 2.9715 1.3846 2.038 0.82454 2.987 1.5402t1.4002 1.6491q0.45116 0.93344 0.45116 2.2247z"/>
   <path d="m739.5 166.18q0 2.5825 0.8401 3.9049 0.85566 1.3224 2.7692 1.3224 1.898 0 2.7226-1.3068 0.8401-1.3224 0.8401-3.9205 0-2.5825-0.8401-3.8738t-2.7537-1.2913q-1.898 0-2.7381 1.2913-0.8401 1.2757-0.8401 3.8738zm12.026 0q0 4.2472-2.2403 6.643t-6.2385 2.3958q-2.5047 0-4.4183-1.089-1.9136-1.1046-2.9404-3.1582t-1.0268-4.7917q0-4.2627 2.2247-6.6275t6.2541-2.3647q2.5048 0 4.4183 1.089 1.9136 1.089 2.9404 3.127t1.0268 4.7761z"/>
   <path d="m762.5 175.22q-8.121 0-8.121-8.9144 0-4.4339 2.2092-6.7675 2.2092-2.3492 6.3319-2.3492 3.0181 0 5.414 1.1824l-1.4002 3.6716q-1.1201-0.45117-2.0847-0.7312-0.96456-0.29559-1.9291-0.29559-3.7027 0-3.7027 5.2584 0 5.1028 3.7027 5.1028 1.3691 0 2.5359-0.35782 1.1668-0.37338 2.3336-1.1512v4.0605q-1.1512 0.7312-2.3336 1.0112-1.1668 0.28003-2.9559 0.28003z"/>
   <path d="m771.61 153.02q0-2.318 2.5825-2.318t2.5825 2.318q0 1.1046-0.65341 1.7269-0.63785 0.60674-1.9291 0.60674-2.5825 0-2.5825-2.3336zm4.9473 21.889h-4.745v-17.393h4.745z"/>
   <path d="m792.56 174.91-0.91789-2.3647h-0.12446q-1.1979 1.5091-2.4736 2.1002-1.2602 0.57562-3.2982 0.57562-2.5047 0-3.9516-1.4313-1.4313-1.4313-1.4313-4.076 0-2.7692 1.9291-4.076 1.9447-1.3224 5.8496-1.4624l3.0181-0.0933v-0.76231q0-2.6448-2.707-2.6448-2.0847 0-4.9006 1.2602l-1.5713-3.2048q3.0026-1.5713 6.6586-1.5713 3.5004 0 5.3673 1.5246t1.8669 4.6361v11.59zm-1.4002-8.0587-1.8358 0.0622q-2.0691 0.0622-3.0804 0.74676-1.0112 0.68452-1.0112 2.0847 0 2.0069 2.3025 2.0069 1.6491 0 2.6292-0.949 0.99567-0.94901 0.99567-2.5203z"/>
   <path d="m805.49 174.91h-4.745v-24.207h4.745z"/>
   <path d="m833.87 157.52v2.4114l-2.7226 0.70008q0.74676 1.1668 0.74676 2.6136 0 2.8003-1.9602 4.3716-1.9447 1.5558-5.414 1.5558l-0.85566-0.0467-0.70008-0.0778q-0.7312 0.56006-0.7312 1.2446 0 1.0268 2.6136 1.0268h2.9559q2.8626 0 4.3561 1.229 1.5091 1.229 1.5091 3.6093 0 3.0492-2.5514 4.7294-2.5359 1.6802-7.2964 1.6802-3.6404 0-5.5696-1.2757-1.9136-1.2602-1.9136-3.5471 0-1.5713 0.98011-2.6292 0.98012-1.0579 2.8781-1.5091-0.7312-0.31115-1.2757-1.0112-0.54451-0.71564-0.54451-1.5091 0-0.99568 0.57562-1.6491 0.57563-0.66897 1.6646-1.3068-1.3691-0.59118-2.178-1.898-0.79343-1.3068-0.79343-3.0804 0-2.847 1.8513-4.4028 1.8513-1.5557 5.2895-1.5557 0.73119 0 1.7269 0.14002 1.0112 0.12446 1.2913 0.18669zm-13.426 19.851q0 0.98011 0.93344 1.5402 0.949 0.56007 2.6448 0.56007 2.5514 0 3.9983-0.70008 1.4468-0.70009 1.4468-1.9136 0-0.98012-0.85566-1.3535t-2.6448-0.37338h-2.4581q-1.3068 0-2.1936 0.60674-0.87121 0.62229-0.87121 1.6335zm1.7269-14.157q0 1.4157 0.63785 2.2403 0.65342 0.82455 1.9758 0.82455 1.3379 0 1.9602-0.82455 0.6223-0.82454 0.6223-2.2403 0-3.1426-2.5825-3.1426-2.6136 0-2.6136 3.1426z"/>
   <path d="m840.49 166.18q0 2.5825 0.8401 3.9049 0.85566 1.3224 2.7692 1.3224 1.898 0 2.7226-1.3068 0.8401-1.3224 0.8401-3.9205 0-2.5825-0.8401-3.8738t-2.7537-1.2913q-1.898 0-2.7381 1.2913-0.8401 1.2757-0.8401 3.8738zm12.026 0q0 4.2472-2.2403 6.643t-6.2385 2.3958q-2.5047 0-4.4183-1.089-1.9136-1.1046-2.9404-3.1582t-1.0268-4.7917q0-4.2627 2.2247-6.6275t6.2541-2.3647q2.5047 0 4.4183 1.089t2.9404 3.127 1.0268 4.7761z"/>
   <path d="m860.22 166.18q0 2.5825 0.8401 3.9049 0.85565 1.3224 2.7692 1.3224 1.898 0 2.7226-1.3068 0.8401-1.3224 0.8401-3.9205 0-2.5825-0.8401-3.8738t-2.7537-1.2913q-1.898 0-2.7381 1.2913-0.8401 1.2757-0.8401 3.8738zm12.026 0q0 4.2472-2.2403 6.643t-6.2385 2.3958q-2.5048 0-4.4183-1.089-1.9136-1.1046-2.9404-3.1582t-1.0268-4.7917q0-4.2627 2.2247-6.6275t6.2541-2.3647q2.5048 0 4.4183 1.089t2.9404 3.127q1.0268 2.038 1.0268 4.7761z"/>
   <path d="m881.67 175.22q-3.0648 0-4.8228-2.3803-1.7424-2.3803-1.7424-6.5964 0-4.2783 1.7736-6.6586 1.7891-2.3958 4.9162-2.3958 3.2826 0 5.0095 2.5514h0.15558q-0.35782-1.9447-0.35782-3.4693v-5.5696h4.7606v24.207h-3.6404l-0.91789-2.2558h-0.20224q-1.618 2.567-4.9317 2.567zm1.6646-3.7804q1.8202 0 2.6603-1.0579 0.85566-1.0579 0.93344-3.5938v-0.51339q0-2.8003-0.87121-4.0138-0.85566-1.2135-2.8003-1.2135-1.5868 0-2.4736 1.3535-0.87121 1.3379-0.87121 3.9049t0.88677 3.8582q0.88677 1.2757 2.5359 1.2757z"/>
  </g>
 </g>
</svg>
